<svg width="45" height="44" viewBox="0 0 45 44" fill="none" xmlns="http://www.w3.org/2000/svg">
<path d="M15.0514 35.3286C15.0514 35.5101 14.8427 35.6552 14.5796 35.6552C14.2802 35.6825 14.0716 35.5373 14.0716 35.3286C14.0716 35.1472 14.2802 35.002 14.5433 35.002C14.8155 34.9748 15.0514 35.12 15.0514 35.3286ZM12.2298 34.9204C12.1663 35.1018 12.3478 35.3105 12.62 35.3649C12.8558 35.4556 13.128 35.3649 13.1825 35.1835C13.2369 35.002 13.0645 34.7933 12.7923 34.7117C12.5565 34.6482 12.2933 34.7389 12.2298 34.9204ZM16.2399 34.7661C15.9768 34.8296 15.7954 35.002 15.8226 35.2107C15.8498 35.3921 16.0857 35.5101 16.3579 35.4466C16.621 35.3831 16.8024 35.2107 16.7752 35.0292C16.748 34.8569 16.503 34.7389 16.2399 34.7661ZM22.2097 0C9.62601 0 0 9.55343 0 22.1371C0 32.1986 6.33266 40.8085 15.378 43.8387C16.5393 44.0474 16.9476 43.3306 16.9476 42.7409C16.9476 42.1784 16.9204 39.0756 16.9204 37.1704C16.9204 37.1704 10.5696 38.5312 9.23589 34.4667C9.23589 34.4667 8.20161 31.8266 6.71371 31.1462C6.71371 31.1462 4.63609 29.7218 6.85887 29.749C6.85887 29.749 9.11794 29.9304 10.3609 32.0897C12.3478 35.5917 15.6774 34.5847 16.9748 33.9859C17.1835 32.5343 17.7732 31.5272 18.4264 30.9284C13.3548 30.3659 8.2379 29.631 8.2379 20.9032C8.2379 18.4083 8.92742 17.1562 10.379 15.5595C10.1431 14.9698 9.37198 12.5383 10.6149 9.39919C12.5111 8.80948 16.875 11.8488 16.875 11.8488C18.6895 11.3407 20.6401 11.0776 22.5726 11.0776C24.505 11.0776 26.4556 11.3407 28.2702 11.8488C28.2702 11.8488 32.6341 8.8004 34.5302 9.39919C35.7732 12.5474 35.002 14.9698 34.7661 15.5595C36.2177 17.1653 37.1069 18.4173 37.1069 20.9032C37.1069 29.6583 31.7631 30.3569 26.6915 30.9284C27.5262 31.6452 28.2339 33.006 28.2339 35.1381C28.2339 38.1956 28.2067 41.9788 28.2067 42.7228C28.2067 43.3125 28.624 44.0292 29.7762 43.8206C38.8488 40.8085 45 32.1986 45 22.1371C45 9.55343 34.7933 0 22.2097 0ZM8.81855 31.2913C8.7006 31.3821 8.72782 31.5907 8.88206 31.7631C9.02722 31.9083 9.23589 31.9718 9.35383 31.8538C9.47177 31.7631 9.44456 31.5544 9.29032 31.3821C9.14516 31.2369 8.93649 31.1734 8.81855 31.2913ZM7.83871 30.5564C7.7752 30.6744 7.86593 30.8196 8.04738 30.9103C8.19254 31.001 8.37399 30.9738 8.4375 30.8468C8.50101 30.7288 8.41028 30.5837 8.22883 30.4929C8.04738 30.4385 7.90222 30.4657 7.83871 30.5564ZM10.7782 33.7863C10.6331 33.9042 10.6875 34.1764 10.8962 34.3488C11.1048 34.5575 11.3679 34.5847 11.4859 34.4395C11.6038 34.3216 11.5494 34.0494 11.3679 33.877C11.1683 33.6683 10.8962 33.6411 10.7782 33.7863ZM9.74395 32.4526C9.59879 32.5433 9.59879 32.7792 9.74395 32.9879C9.88911 33.1966 10.1341 33.2873 10.252 33.1966C10.3972 33.0786 10.3972 32.8427 10.252 32.6341C10.125 32.4254 9.88911 32.3347 9.74395 32.4526Z" fill="white"/>
</svg>
