<svg width="45" height="45" viewBox="0 0 45 45" fill="none" xmlns="http://www.w3.org/2000/svg">
<path d="M10.0728 45.009H0.743304V14.9655H10.0728V45.009ZM5.40301 10.8673C2.41975 10.8673 0 8.39628 0 5.41302C2.13529e-08 3.98005 0.569244 2.60578 1.58251 1.59252C2.59577 0.579254 3.97005 0.0100098 5.40301 0.0100098C6.83598 0.0100098 8.21026 0.579254 9.22352 1.59252C10.2368 2.60578 10.806 3.98005 10.806 5.41302C10.806 8.39628 8.38527 10.8673 5.40301 10.8673ZM44.99 45.009H35.6806V30.384C35.6806 26.8985 35.6103 22.4286 30.83 22.4286C25.9795 22.4286 25.2362 26.2155 25.2362 30.1329V45.009H15.9167V14.9655H24.8645V19.0637H24.9951C26.2406 16.7032 29.2831 14.2121 33.8223 14.2121C43.2643 14.2121 45 20.4298 45 28.5057V45.009H44.99Z" fill="white"/>
</svg>
